# xmcd
#
# Track frame offsets:
#	150
#	19671
#	34718
#	54199
#	72827
#	88411
#	110897
#	129263
#	147097
#	167683
#	186757
#	207081
#	226798
#	246439
#	264887
#	285029
#	300165
#
# Disc length: 4296 seconds
#
# Revision: 0
# Processed by: cddbd v1.5.2PL0 Copyright (c) Steve Scherf et al.
# Submitted via: dBpowerAMP V4.0
#
DISCID=d910c611
DTITLE=Various Artist - Top Hits USA RA34
DYEAR=1900
DGENRE=
TTITLE0=Rod Stewart - So Far Away
TTITLE1=Michael Bolton - A Love So Beautiful
TTITLE2=George Michael - Jesus To A Child (Special Radio Edit)
TTITLE3=Natalie Merchant - Wonder (Remix)
TTITLE4=Peter Cetera - Faithfully
TTITLE5=Hootie and The Blowfish - Time
TTITLE6=Curtis Stigers - Keep Me From The Cold
TTITLE7=Trisha Yearwood - On A Bus To St. Cloud (Edited Version)
TTITLE8=Goo Goo Dolls - Name
TTITLE9=Tony Rich Project - Nobody Knows (Radio Edit)
TTITLE10=Beatles - Free As A Bird
TTITLE11=Joan Osbourne - One Of Us (Edit)
TTITLE12=Deep Blue Something - Breakfast At Tiffany's
TTITLE13=Phil Collins - Somewhere (Radio Edit)
TTITLE14=Seal - Don't Cry (Radio Edit)
TTITLE15=Mary Chapin Carpenter - Grow Old With Me
TTITLE16=Meatloaf - I'd Lie For You (And That's The Truth) (True Detective Edit)
EXTD=
EXTT0=
EXTT1=
EXTT2=
EXTT3=
EXTT4=
EXTT5=
EXTT6=
EXTT7=
EXTT8=
EXTT9=
EXTT10=
EXTT11=
EXTT12=
EXTT13=
EXTT14=
EXTT15=
EXTT16=
PLAYORDER=
